<?xml version="1.0" standalone="no"?>
<!DOCTYPE svg PUBLIC "-//W3C//DTD SVG 20010904//EN"
 "http://www.w3.org/TR/2001/REC-SVG-20010904/DTD/svg10.dtd">
<svg version="1.0" xmlns="http://www.w3.org/2000/svg"
 width="25pt" height="26.5pt" viewBox="0 0 200.000000 215.000000"
 preserveAspectRatio="xMidYMid meet">

<g transform="translate(0.000000,215.000000) scale(0.100000,-0.100000)"
fill="#fff" stroke="none">
<path d="M108 1173 c2 -510 7 -873 13 -895 14 -55 68 -119 124 -147 l49 -26
685 -3 c463 -2 702 1 737 8 56 12 123 54 149 94 9 13 25 48 35 77 19 51 20 84
20 719 0 700 0 694 -44 779 -21 39 -65 77 -116 100 -44 20 -63 21 -723 21
l-678 0 -123 65 c-67 36 -125 65 -127 65 -2 0 -3 -386 -1 -857z m582 318 c92
-49 128 -164 79 -251 -40 -70 -128 -109 -202 -89 -87 23 -139 91 -139 179 0
71 48 143 112 169 41 16 112 13 150 -8z m830 -1 c80 -41 119 -137 91 -223 -16
-47 -79 -103 -132 -117 -125 -34 -253 94 -219 218 13 50 62 109 105 128 44 19
110 17 155 -6z"/>
</g>
</svg>
